<?xml version="1.0" standalone="no"?>
<!DOCTYPE svg PUBLIC "-//W3C//DTD SVG 20010904//EN"
 "http://www.w3.org/TR/2001/REC-SVG-20010904/DTD/svg10.dtd">
<svg version="1.0" xmlns="http://www.w3.org/2000/svg"
 width="1972.000000pt" height="1972.000000pt" viewBox="0 0 1972.000000 1972.000000"
 preserveAspectRatio="xMidYMid meet">
<metadata>
Created by potrace 1.11, written by Peter Selinger 2001-2013
</metadata>
<g transform="translate(0.000000,1972.000000) scale(0.100000,-0.100000)"
fill="#000000" stroke="none">
<path d="M0 10870 l0 -3860 2220 0 c1769 0 2220 3 2221 13 0 6 1 327 1 712 l1
700 -21 -1 c-12 -1 -22 3 -22 8 0 5 -6 6 -12 2 -19 -12 -218 -11 -218 1 0 7
-3 6 -8 0 -8 -12 -22 -13 -39 -2 -7 5 -13 5 -13 0 0 -10 -61 -10 -76 0 -6 3
-14 3 -18 0 -8 -8 -326 -10 -326 -2 0 3 -10 5 -22 3 -13 -1 -23 -3 -23 -4 0
-6 -107 -4 -111 2 -3 5 -11 5 -17 1 -18 -12 -141 -10 -149 2 -5 7 -10 7 -15 0
-9 -11 -303 -15 -303 -4 0 3 -10 5 -22 3 -13 -1 -23 -3 -23 -4 0 -6 -107 -4
-111 2 -3 5 -11 5 -17 1 -18 -12 -141 -10 -149 2 -5 7 -10 7 -15 0 -9 -12
-233 -14 -233 -2 0 4 -6 5 -12 1 -19 -12 -218 -11 -218 1 0 7 -3 6 -8 0 -8
-12 -22 -13 -39 -2 -7 5 -13 5 -13 0 0 -10 -61 -10 -77 0 -6 4 -14 4 -16 0 -6
-10 -239 -9 -255 1 -7 4 -12 4 -12 -1 0 -4 -29 -8 -65 -8 -58 0 -66 2 -70 20
-2 11 -3 1427 -2 3148 l2 3127 -847 0 -848 0 0 -3860z"/>
<path d="M9830 13460 c-5 -3 -8 -30 -8 -61 1 -30 -2 -60 -6 -67 -4 -7 -2 -12
4 -12 7 0 8 -6 1 -19 -6 -10 -8 -21 -4 -24 5 -5 7 -76 3 -102 -1 -9 -1 -53 1
-150 0 -22 0 -44 -1 -50 -1 -5 -2 -13 -2 -16 1 -6 2 -122 2 -149 0 -8 0 -36 1
-61 1 -25 -1 -51 -5 -57 -4 -7 -2 -12 4 -12 7 0 8 -6 1 -19 -6 -10 -8 -21 -4
-24 5 -5 7 -76 3 -102 -1 -9 -1 -53 1 -150 0 -22 0 -44 -1 -50 -1 -5 -2 -13
-2 -16 1 -6 2 -122 2 -149 0 -8 0 -36 1 -61 1 -25 -1 -51 -5 -57 -4 -7 -2 -12
4 -12 7 0 8 -6 1 -19 -6 -10 -8 -21 -4 -24 5 -5 7 -76 3 -102 -1 -9 -1 -53 1
-150 0 -22 0 -44 -1 -50 -1 -5 -1 -36 0 -67 1 -42 -2 -58 -12 -59 -7 0 -136
-1 -285 -1 -272 0 -273 -1 -273 -22 -3 -285 1 -1180 5 -1186 3 -5 129 -8 280
-8 152 1 277 -1 280 -3 3 -4 6 -52 5 -99 0 -8 0 -36 1 -61 1 -25 -1 -51 -5
-57 -4 -7 -2 -12 4 -12 7 0 8 -6 1 -19 -6 -10 -8 -21 -4 -24 5 -5 7 -76 3
-102 -1 -9 -1 -53 1 -150 0 -22 0 -44 -1 -50 -1 -5 -2 -13 -2 -16 1 -6 2 -122
2 -149 0 -8 0 -36 1 -61 1 -25 -1 -50 -4 -56 -4 -6 -4 -19 0 -29 6 -15 8 -72
3 -91 -2 -8 -1 -51 2 -115 1 -21 -1 -40 -4 -44 -4 -3 -3 -18 2 -33 4 -16 4
-34 0 -42 -5 -7 -6 -17 -3 -22 5 -8 7 -77 3 -102 -2 -11 -1 -90 2 -152 1 -24
0 -45 -3 -47 -2 -2 -2 -39 1 -80 3 -42 1 -76 -3 -76 -5 0 -5 -5 -2 -10 4 -6 9
-46 11 -88 5 -94 20 -247 24 -247 1 0 3 -9 5 -20 2 -11 7 -36 11 -55 5 -19 9
-39 9 -45 1 -5 5 -17 8 -25 4 -8 8 -26 11 -40 12 -72 148 -397 176 -420 3 -3
21 -29 39 -58 19 -30 39 -59 45 -65 6 -7 23 -29 38 -49 100 -133 303 -296 473
-377 79 -38 225 -93 225 -84 0 3 7 0 15 -7 9 -7 18 -10 22 -7 3 4 11 3 17 -2
6 -5 27 -12 46 -15 19 -3 46 -8 60 -11 50 -11 137 -19 212 -19 43 -1 78 -3 78
-6 0 -3 232 -4 515 -2 l515 2 -2 688 -3 687 -220 1 c-261 2 -315 4 -315 16 0
4 -3 7 -7 6 -13 -3 -84 23 -120 45 -44 25 -113 92 -113 108 0 7 -3 9 -7 6 -9
-10 -61 89 -83 158 -7 22 -15 47 -18 55 -3 8 -7 22 -8 30 -6 25 -16 164 -14
190 1 14 1 30 1 35 -2 31 -2 101 -1 110 1 6 2 24 1 40 0 17 -1 40 -1 53 0 12
0 30 0 40 0 9 0 28 1 42 0 14 0 30 0 35 -2 28 -2 101 -1 110 1 9 1 53 -1 150
0 22 0 45 1 50 1 9 1 96 -1 190 0 22 0 45 1 50 1 9 1 96 -1 190 0 22 0 45 1
50 0 6 1 44 0 85 -2 110 -2 112 4 117 3 3 174 5 381 5 215 0 378 4 381 9 4 7
8 1108 5 1196 -1 9 -95 12 -380 11 -209 0 -384 3 -389 6 -7 4 -7 17 -2 36 5
18 5 32 -1 36 -5 3 -7 10 -3 16 3 5 6 42 5 81 -1 40 -2 90 -2 112 0 22 0 45 0
50 2 9 1 178 0 270 -1 22 0 45 1 50 1 9 1 96 -1 190 0 22 0 45 1 50 1 9 1 96
-1 190 0 22 0 45 1 50 1 9 1 96 -1 190 0 22 0 45 1 50 1 9 1 96 -1 190 0 22 0
45 1 50 2 17 -1 239 -4 259 -2 16 -12 19 -59 20 -31 1 -57 -2 -57 -7 0 -4 -5
-5 -11 -1 -15 9 -223 9 -238 0 -6 -4 -11 -4 -11 1 0 12 -154 10 -162 -2 -5 -7
-8 -7 -8 0 0 6 -11 10 -25 10 -14 0 -25 -4 -25 -8 0 -5 -5 -5 -11 -1 -15 9
-223 9 -238 0 -6 -4 -11 -4 -11 1 0 12 -154 10 -162 -2 -5 -7 -8 -7 -8 0 0 6
-11 10 -25 10 -14 0 -25 -4 -25 -8 0 -5 -5 -5 -11 -1 -15 9 -223 9 -238 0 -6
-4 -11 -4 -11 1 0 12 -154 10 -162 -2 -5 -6 -8 -6 -8 2 0 8 -9 9 -30 3 -16 -5
-30 -6 -30 -2 0 8 -48 9 -60 2z"/>
<path d="M14976 11693 c-2 -2 -34 -5 -72 -7 -38 -2 -69 -5 -69 -5 0 -1 -20 -4
-45 -6 -47 -3 -108 -12 -150 -20 -14 -3 -38 -8 -55 -11 -16 -4 -39 -8 -50 -9
-32 -6 -166 -43 -214 -59 -24 -9 -47 -13 -52 -10 -5 3 -9 1 -9 -4 0 -7 -62
-32 -90 -37 -3 0 -12 -5 -20 -10 -8 -5 -20 -10 -26 -11 -12 -2 -186 -86 -194
-94 -3 -3 -25 -16 -50 -29 -25 -14 -48 -29 -51 -34 -3 -5 -10 -9 -15 -9 -12
-1 -47 -24 -129 -85 -134 -100 -232 -193 -370 -353 -88 -103 -246 -372 -306
-521 -32 -81 -40 -104 -40 -106 0 -2 -7 -22 -15 -45 -9 -24 -17 -47 -18 -53
-1 -5 -10 -37 -20 -70 -10 -33 -20 -69 -22 -80 -2 -11 -8 -40 -14 -65 -6 -25
-13 -59 -15 -75 -2 -17 -5 -30 -6 -30 -2 0 -3 -8 -13 -85 -3 -25 -8 -58 -11
-75 -23 -155 -24 -554 -1 -740 13 -102 17 -133 22 -155 3 -14 8 -41 11 -60 10
-72 74 -304 108 -394 19 -52 35 -99 35 -105 0 -6 5 -11 12 -11 6 0 9 -3 5 -6
-9 -9 134 -282 155 -295 5 -3 10 -10 10 -15 0 -9 48 -81 74 -114 140 -172 254
-289 360 -370 33 -25 61 -48 64 -51 8 -10 183 -123 215 -139 17 -8 32 -17 35
-20 6 -6 114 -59 203 -100 149 -67 487 -167 627 -185 25 -3 68 -10 95 -15 28
-5 69 -11 93 -13 23 -3 45 -7 49 -10 3 -4 14 -2 24 4 11 5 19 6 19 2 0 -11
125 -16 350 -17 280 0 498 16 512 38 6 8 8 8 8 0 0 -12 3 -12 160 16 58 10
119 21 135 24 17 2 45 9 64 15 19 6 36 9 39 7 2 -2 15 2 29 9 15 8 30 12 34 9
5 -3 21 2 37 10 16 8 32 13 35 10 3 -3 19 2 36 11 17 8 31 13 31 10 0 -3 9 -1
21 5 11 6 30 13 42 16 26 5 109 36 189 72 31 14 60 24 64 23 4 -2 10 1 13 6 3
4 57 33 119 63 61 30 112 58 112 62 0 4 4 7 8 5 9 -2 282 168 310 193 9 9 38
31 65 49 26 19 47 38 47 43 0 4 7 8 15 8 8 0 20 9 27 20 7 11 18 20 25 20 18
0 16 23 -4 46 -10 10 -37 44 -60 74 -23 30 -51 65 -62 77 -12 12 -21 24 -21
27 0 5 -155 203 -188 241 -10 11 -31 38 -48 60 -16 22 -39 51 -52 65 -13 14
-31 37 -40 53 -9 15 -20 27 -24 27 -4 0 -8 6 -8 14 0 8 -4 16 -8 18 -4 2 -43
47 -85 101 -43 53 -80 97 -83 97 -3 0 -11 -6 -18 -12 -34 -34 -177 -137 -247
-178 -30 -17 -61 -35 -69 -40 -39 -25 -179 -87 -184 -82 -3 3 -6 1 -6 -5 0 -5
-6 -10 -12 -10 -7 0 -43 -12 -80 -26 -38 -14 -68 -24 -68 -22 0 2 -12 -2 -27
-10 -15 -8 -30 -12 -35 -9 -4 3 -14 2 -20 -3 -7 -4 -17 -8 -23 -10 -86 -19
-116 -25 -266 -48 -95 -15 -297 -28 -434 -28 -102 0 -242 10 -256 18 -4 3 -20
7 -36 9 -31 4 -162 44 -178 54 -5 4 -12 7 -15 7 -15 1 -150 79 -150 86 0 5 -5
9 -10 9 -22 0 -153 129 -208 203 -40 54 -132 234 -132 257 0 9 -3 20 -7 24 -5
4 -8 11 -9 14 0 4 -5 25 -12 46 -6 22 -9 43 -7 47 3 4 1 9 -4 11 -5 1 -12 28
-16 58 -4 30 -9 69 -11 87 l-4 31 1590 1 c874 0 1594 2 1599 5 4 3 7 20 5 38
-1 18 -5 94 -9 168 -3 74 -9 160 -12 190 -3 30 -6 67 -7 83 -1 15 -3 27 -6 27
-3 0 -6 12 -7 28 -1 15 -3 46 -5 69 -2 24 -6 43 -10 43 -3 0 -5 8 -3 18 1 9 0
22 -4 27 -3 6 -6 15 -7 20 -8 46 -15 86 -23 118 -5 20 -7 37 -4 37 3 0 1 6 -4
13 -6 6 -16 35 -22 62 -7 28 -17 59 -21 70 -5 11 -11 32 -14 47 -4 15 -10 37
-15 50 -5 13 -9 26 -10 31 0 4 -8 21 -17 38 -8 17 -17 39 -19 48 -8 42 -132
292 -188 378 -15 24 -27 47 -27 53 0 5 -4 10 -10 10 -5 0 -10 6 -10 14 0 8 -4
16 -8 18 -5 2 -23 25 -42 53 -38 55 -40 57 -104 134 -25 30 -46 59 -46 65 0 5
-2 7 -5 5 -2 -3 -48 38 -102 91 -96 94 -149 140 -193 170 -13 8 -35 25 -50 38
-15 12 -33 22 -39 22 -6 0 -11 4 -11 8 0 15 -279 171 -307 172 -7 0 -13 5 -13
10 0 6 -6 10 -12 10 -7 0 -47 14 -88 31 -41 17 -82 32 -90 34 -8 2 -51 16 -95
30 -108 35 -325 81 -430 90 -22 3 -69 7 -105 10 -70 7 -369 13 -374 8z m259
-1068 c22 -3 69 -16 105 -27 36 -12 67 -21 70 -21 3 0 22 -11 42 -23 21 -13
40 -24 44 -24 11 0 88 -64 134 -111 56 -58 91 -103 110 -143 8 -17 18 -32 22
-34 4 -2 8 -10 8 -18 0 -7 9 -29 20 -49 11 -19 18 -35 15 -35 -2 0 0 -12 6
-27 21 -54 39 -135 42 -186 l2 -51 -745 0 c-736 -1 -745 0 -744 19 8 113 92
340 169 460 33 53 150 175 167 175 4 0 23 11 42 23 41 29 155 66 228 76 62 9
206 6 263 -4z"/>
<path d="M4063 11552 c1 -9 5 -21 9 -27 3 -5 49 -127 103 -270 53 -143 105
-280 116 -304 11 -24 18 -46 15 -49 -3 -3 -1 -11 4 -17 11 -14 61 -144 63
-162 0 -7 4 -13 9 -13 4 0 8 -8 8 -18 0 -10 3 -22 7 -26 4 -3 8 -12 9 -19 1
-7 14 -44 28 -82 47 -121 53 -138 86 -225 18 -47 36 -94 40 -105 13 -32 64
-169 66 -177 1 -5 3 -10 4 -13 1 -3 3 -8 4 -12 1 -5 10 -25 19 -47 9 -21 17
-40 17 -42 0 -7 70 -187 81 -209 5 -11 11 -30 12 -43 0 -12 5 -22 9 -22 4 0
10 -16 14 -35 3 -19 10 -38 15 -41 5 -3 9 -14 9 -25 0 -10 4 -19 8 -19 5 0 9
-6 9 -12 0 -7 22 -69 48 -138 26 -69 54 -143 62 -165 7 -22 17 -49 22 -60 5
-11 14 -36 21 -55 7 -19 16 -44 21 -55 11 -27 74 -194 105 -280 14 -38 29 -80
35 -92 13 -33 24 -60 53 -138 14 -38 44 -117 67 -175 22 -58 42 -112 44 -120
2 -8 13 -37 25 -65 12 -27 22 -58 23 -67 1 -10 5 -18 9 -18 4 0 8 -5 8 -11 0
-10 33 -100 92 -254 11 -27 27 -70 35 -95 9 -25 19 -49 23 -55 8 -11 22 -63
18 -67 -1 -2 5 -16 14 -33 15 -28 27 -59 28 -70 0 -3 6 -18 14 -33 33 -65 130
-392 125 -419 -1 -4 1 -15 4 -23 13 -31 24 -157 22 -244 -4 -124 -7 -136 -67
-224 -33 -48 -156 -154 -170 -146 -4 3 -8 2 -8 -3 0 -13 -130 -66 -185 -76
-16 -3 -41 -9 -55 -13 -14 -3 -124 -8 -245 -10 -121 -2 -225 -3 -230 -4 -7 0
-10 -224 -9 -662 1 -365 2 -667 3 -671 0 -4 247 -7 549 -6 481 1 560 3 655 20
59 10 116 20 125 23 9 3 20 6 24 6 18 1 170 61 219 86 66 34 185 113 221 148
15 14 31 26 37 26 5 0 11 4 13 9 2 5 23 31 48 58 115 123 214 281 303 483 38
87 123 330 119 343 -1 4 3 7 10 7 6 0 9 3 5 6 -3 4 1 23 9 43 9 20 17 43 19
51 4 18 81 242 120 350 15 41 27 81 28 88 0 6 3 12 7 12 4 0 7 6 7 13 0 10 52
170 70 217 3 8 7 20 9 25 1 6 27 81 57 167 30 86 52 159 49 163 -3 3 -1 5 5 5
6 0 14 15 18 33 4 17 9 34 10 37 9 23 20 54 64 185 28 83 62 182 76 220 14 39
27 77 29 85 3 8 9 27 14 41 6 15 8 30 5 33 -4 3 -1 6 6 6 7 0 9 5 6 10 -3 6
-1 10 5 10 6 0 8 5 5 10 -4 6 -1 17 5 25 7 8 9 15 6 15 -4 0 -2 9 4 21 6 11
13 28 15 37 2 9 32 96 65 192 34 96 63 182 65 190 2 8 4 16 5 18 2 1 3 5 5 10
1 4 7 21 14 37 7 17 14 37 16 45 2 8 8 27 13 41 6 15 8 30 5 33 -4 3 -2 6 4 6
6 0 13 14 17 31 3 18 22 77 42 133 36 104 40 116 43 128 1 4 10 28 21 53 11
25 17 45 13 45 -3 0 2 11 11 25 9 14 14 25 12 25 -2 0 18 64 46 143 27 78 51
147 52 152 2 6 6 17 9 25 3 8 27 78 52 155 26 77 50 147 53 155 3 8 6 20 8 25
1 6 26 75 54 155 29 80 53 150 54 155 1 6 5 15 8 21 4 6 9 22 12 36 2 15 10
36 16 48 6 12 14 34 16 48 3 15 9 31 14 37 4 5 9 15 9 20 1 13 20 74 31 100 4
11 25 70 45 130 20 61 39 117 43 125 3 8 6 17 7 20 24 79 30 97 36 105 4 6 17
44 29 85 12 41 25 80 28 85 4 6 7 15 8 20 1 6 32 96 69 200 37 105 67 195 69
200 1 6 4 15 7 20 4 6 14 38 24 73 11 34 21 62 24 62 3 0 7 11 7 24 l2 24
-842 0 c-464 0 -847 -3 -852 -6 -5 -4 -11 -14 -12 -22 -2 -8 -17 -67 -34 -130
-16 -63 -31 -122 -32 -130 -1 -9 -5 -20 -8 -25 -5 -9 -23 -80 -32 -130 -2 -11
-9 -33 -15 -48 -6 -15 -10 -31 -10 -35 1 -4 0 -9 -1 -12 -1 -3 -3 -12 -5 -20
-2 -8 -9 -33 -15 -55 -19 -70 -21 -79 -26 -105 -2 -14 -9 -36 -14 -50 -5 -14
-12 -36 -14 -50 -3 -14 -19 -77 -36 -140 -17 -63 -33 -126 -36 -140 -3 -14
-12 -48 -20 -76 -8 -28 -16 -60 -18 -70 -2 -11 -11 -46 -20 -79 -9 -33 -18
-67 -20 -75 -2 -8 -16 -60 -30 -115 -15 -55 -29 -111 -32 -124 -4 -21 -42
-163 -70 -266 -4 -16 -9 -34 -10 -40 -1 -5 -3 -12 -4 -15 -1 -3 -3 -13 -6 -22
-2 -10 -6 -26 -8 -35 -3 -10 -5 -18 -6 -18 -1 0 -3 -9 -5 -20 -3 -11 -18 -72
-35 -135 -17 -63 -33 -123 -35 -133 -2 -10 -13 -51 -24 -91 -11 -40 -22 -83
-25 -97 -3 -13 -7 -34 -10 -46 -4 -13 -8 -33 -11 -44 -5 -26 -14 -37 -16 -21
-2 15 -6 31 -9 35 -2 2 -2 6 -15 62 -9 44 -13 60 -15 60 -1 0 -3 12 -4 26 -2
14 -6 31 -10 38 -4 6 -9 24 -12 39 -5 38 -45 180 -114 404 -4 14 -6 29 -2 32
3 3 -1 6 -8 6 -7 0 -10 3 -7 6 3 4 2 15 -4 26 -6 11 -13 32 -15 46 -3 15 -12
47 -20 72 -9 25 -18 54 -20 64 -2 10 -9 35 -16 55 -7 20 -13 38 -13 41 -1 3
-8 25 -15 50 -7 25 -14 47 -15 50 -1 3 -13 44 -28 91 -15 48 -27 92 -27 97 0
6 -5 23 -12 39 -12 30 -14 38 -22 68 -2 11 -14 49 -25 85 -21 66 -69 224 -122
405 -16 55 -33 107 -36 115 -3 8 -7 22 -9 30 -3 17 -23 87 -32 110 -3 8 -6 18
-7 23 -2 4 -3 8 -5 10 -1 1 -3 9 -5 17 -2 14 -36 125 -87 290 -11 36 -23 79
-27 95 l-7 30 -862 2 c-801 1 -861 0 -859 -15z"/>
<path d="M18134 7808 l0 -798 793 0 793 0 0 798 0 798 -793 0 -794 0 1 -798z"/>
</g>
</svg>
