<svg xmlns="http://www.w3.org/2000/svg" width="25.212" height="25.212"><path data-name="Pfad 30" d="M21.519 0H3.693A3.7 3.7 0 0 0 0 3.693v17.826a3.7 3.7 0 0 0 3.693 3.693h17.826a3.7 3.7 0 0 0 3.693-3.693V3.693A3.7 3.7 0 0 0 21.519 0zm-8.864 19.2a6.648 6.648 0 1 1 6.645-6.643 6.655 6.655 0 0 1-6.645 6.643zm7.386-11.814a2.216 2.216 0 1 1 2.216-2.216 2.218 2.218 0 0 1-2.216 2.216zm0 0" fill="#234129"/><path data-name="Pfad 31" d="M20.042 4.432a.739.739 0 1 0 .739.739.739.739 0 0 0-.739-.739zm0 0" fill="#234129"/><path data-name="Pfad 32" d="M12.655 7.386a5.17 5.17 0 1 0 5.17 5.17 5.177 5.177 0 0 0-5.17-5.17zm0 0" fill="#234129"/></svg>