<svg xmlns="http://www.w3.org/2000/svg" viewBox="0 0 493.08 243.6"><path d="M0 193.09V0h42.32v157.38h68.77v35.71H0z"/><path d="M175.75 218.48c-5.3 15.08-14.82 25.12-32.53 25.12h-23.81v-33.59h8.72c7.94 0 15.61-4.76 15.61-11.37 0-5.29-1.07-10.06-3.18-15.87L101.43 79.09h43.11l15.61 51.84c2.11 6.61 3.69 14.28 3.69 14.28s1.85-7.41 3.7-14.28l13.49-51.84h42.58l-47.86 139.39zM283.64 193.09c-23.01 0-38.09-17.72-38.09-41.79v-41.8h-14.28V79.09h14.28V31.74h40.99v47.35h19.31v30.41h-19.31v34.38c0 8.73 4.5 14.82 12.7 14.82h10.06v34.38h-25.66zM384.43 196.26c-33.33 0-64.01-17.72-64.01-61.1 0-38.09 25.39-59.25 57.39-59.25 36.24 0 60.84 25.65 60.84 67.18h-79.88c1.31 13.22 9.52 24.07 25.65 24.07 17.72 0 28.3-3.97 38.09-12.17l17.46 22.21c-17.18 14.3-34.91 19.06-55.54 19.06zm-7.14-93.9c-11.64 0-16.13 8.21-18.25 19.05h37.56c-1.06-11.64-8.47-19.05-19.31-19.05zM453.41 193.09v-39.94h39.67v39.94h-39.67z"/></svg>