<svg height="683" viewBox="-36 0 512 512" width="683" xmlns="http://www.w3.org/2000/svg"><path d="M188 79h-31V51c7 0 13-6 13-13V13c0-7-6-13-13-13H67c-7 0-13 6-13 13v25c0 7 6 13 13 13v28H36C16 79 0 95 0 115v13a8 8 0 0 0 15 0v-13c0-11 10-21 21-21h152c11 0 21 10 21 21v139c0 11-10 21-21 21h-27a8 8 0 0 0 0 15h22v7H41v-7h83a8 8 0 1 0 0-15H36c-11 0-21-10-21-21v-90a8 8 0 0 0-15 0v90c0 16 11 30 26 35v9a34 34 0 0 0 0 66v10a34 34 0 0 0 0 66v9H13c-7 0-13 5-13 12v15c0 20 16 36 36 36h152c20 0 36-16 36-36v-15c0-7-6-12-13-12h-13v-10a34 34 0 0 0 0-65v-10a34 34 0 0 0 0-65v-11c15-4 26-18 26-34V115c0-20-16-36-36-36zM69 15h86v21H69zm13 36h60v28H82zM41 373v-8h142v8zm168 103c0 11-10 21-21 21H36c-11 0-21-10-21-21v-12h194zM41 449v-8h142v8zm168-42c0 10-9 18-19 18H34a19 19 0 0 1 0-37h156c10 0 19 8 19 19zm0-76c0 11-9 19-19 19H34a19 19 0 0 1 0-37h156c10 0 19 8 19 18zm0 0M423 271H247c-10 0-18 8-18 17v4c0 10 8 17 18 17h3l13 185c0 10 9 18 19 18h104c11 0 19-8 20-18l14-185h3c10 0 18-7 18-17v-4c0-9-8-17-18-17zm2 21l-2 2H311a8 8 0 1 0 0 15h94l-14 184c0 2-2 4-5 4H282c-2 0-4-2-4-4l-13-184h11a8 8 0 0 0 0-15h-29c-2 0-3-1-3-2v-4c0-1 1-2 3-2h176l2 2zm0 0"/></svg>