<svg xmlns="http://www.w3.org/2000/svg" viewBox="0 0 64 64" width="512" height="512"><path d="M53 18h-8V8a3 3 0 0 0-1-2l-2-3a3 3 0 0 0-2-1H26a3 3 0 0 0-2 1l-2 3a3 3 0 0 0-1 2v10h-8a3 3 0 0 0-3 3v23a3 3 0 0 0-2 2v13a3 3 0 0 0 3 3h42a3 3 0 0 0 3-3V21a3 3 0 0 0-3-3zM39 4h1a1 1 0 0 1 1 0l2 3a1 1 0 0 1 0 1v15a1 1 0 0 1-1 1h-2a1 1 0 0 1-1-1zm-2 14h-8v-8h8zM29 4h8v4h-8zm-6 4a1 1 0 0 1 0-1l2-3a1 1 0 0 1 1 0h1v19a1 1 0 0 1-1 1h-2a1 1 0 0 1-1-1zm31 51a1 1 0 0 1-1 1H11a1 1 0 0 1-1-1V46a1 1 0 0 1 1-1l13-6v-2l-12 5V21a1 1 0 0 1 1-1h8v3a3 3 0 0 0 3 3h2a3 3 0 0 0 3-3v-3h8v3a3 3 0 0 0 3 3h2a3 3 0 0 0 3-3v-3h8a1 1 0 0 1 1 1z"/></svg>