<svg xmlns="http://www.w3.org/2000/svg" viewBox="0 0 64 64" width="512" height="512"><path d="M32 55a1 1 0 0 1-1 1H7a1 1 0 0 1-1-1V40a1 1 0 0 1 1-1h16v-2H9a1 1 0 0 1 0-2h9v-2H9a1 1 0 0 1 0-2h9v-2H8a1 1 0 0 1-1-1v-5a7 7 0 0 1 7-7h4v-2h-3v-2h3v-2h-4a1 1 0 0 1-1-1V5a1 1 0 0 1 1-1h4V2h-4a3 3 0 0 0-3 3v4a3 3 0 0 0 2 3v2a9 9 0 0 0-8 9v5a3 3 0 0 0 1 3 3 3 0 0 0 1 3 3 3 0 0 0-1 3 3 3 0 0 0-2 3v15a3 3 0 0 0 2 3v1a3 3 0 0 0 3 3h20a3 3 0 0 0 3-3v-1a3 3 0 0 0 2-3V40h-2zm-3 5H9a1 1 0 0 1-1-1v-1h22v1a1 1 0 0 1-1 1z"/><path d="M57 2H23a3 3 0 0 0-3 3v26a3 3 0 0 0 3 3h1a1 1 0 0 1 1 1v4a2 2 0 0 0 1 2 2 2 0 0 0 1 0 2 2 0 0 0 1-1l7-6a1 1 0 0 1 1 0h21a3 3 0 0 0 3-3V5a3 3 0 0 0-3-3zm1 29a1 1 0 0 1-1 1H36a3 3 0 0 0-2 1l-7 6v-4a3 3 0 0 0-3-3h-1a1 1 0 0 1-1-1V5a1 1 0 0 1 1-1h34a1 1 0 0 1 1 1z"/><path d="M41 13l-3 2 2 2 4-5-4-5-2 2 3 2h-3a7 7 0 0 0-7 7v3h2v-3a5 5 0 0 1 5-5zM46 18a5 5 0 0 1-5 5h-3l3-2-2-2-4 5 4 5 2-2-3-2h3a7 7 0 0 0 7-7v-3h-2z"/></svg>