<svg xmlns="http://www.w3.org/2000/svg" width="27.488" height="22.498"><path d="M10.255 22.5a23.585 23.585 0 0 1-3.643-.289A17.1 17.1 0 0 1 1.629 20.4L0 19.5l1.763-.58c1.927-.634 3.1-1.027 4.551-1.643A6.055 6.055 0 0 1 3.2 13.676l-.41-1.245.336.051a6.117 6.117 0 0 1-.766-.945 5.8 5.8 0 0 1-.984-3.448L1.456 7l.651.252a6.084 6.084 0 0 1-.59-1.652 6.288 6.288 0 0 1 .67-4.233L2.754.328l.758.911a13.953 13.953 0 0 0 9.039 5.089 5.406 5.406 0 0 1 .328-2.872A5.378 5.378 0 0 1 15.065.949a6.567 6.567 0 0 1 3.811-.936 6.087 6.087 0 0 1 3.742 1.543 12.562 12.562 0 0 0 1.37-.457c.3-.113.641-.241 1.067-.388l1.57-.541L25.6 3.095c.068-.006.137-.01.21-.014L27.488 3 26.5 4.36c-.057.078-.071.1-.091.13-.08.12-.179.27-1.54 2.087a2.563 2.563 0 0 0-.479 1.669 15.783 15.783 0 0 1-.861 6.348 11.233 11.233 0 0 1-3.015 4.467 13.318 13.318 0 0 1-6.314 3.05 19.434 19.434 0 0 1-3.945.389zm0 0" fill="#234129"/></svg>